<svg xmlns="http://www.w3.org/2000/svg" viewBox="0 0 64 64" fill="none">
  <defs>
    <linearGradient id="dgrad" x1="16" y1="56" x2="40" y2="8" gradientUnits="userSpaceOnUse">
      <stop offset="0" stop-color="#00D4FF"/>
      <stop offset="1" stop-color="#1a3ac7"/>
    </linearGradient>
  </defs>
  <path d="M32 4C32 4 32 4 32 4L32 16C38.627 16 44 21.373 44 28C44 34.627 38.627 40 32 40L32 40L32 4Z" fill="url(#dgrad)"/>
  <path d="M20 8L20 56C20 56 20 56 20 56L20 8Z" fill="url(#dgrad)" stroke="url(#dgrad)" stroke-width="8" stroke-linecap="round"/>
  <circle cx="20" cy="46" r="10" fill="url(#dgrad)"/>
  <path d="M32 40C32 40 26 40 20 40C20 46 20 52 20 52C26 52 32 46 32 40Z" fill="url(#dgrad)"/>
</svg>
